<svg xmlns="http://www.w3.org/2000/svg" width="18.59" height="14.307" viewBox="0 0 18.59 14.307">
  <g id="Component_155_3" data-name="Component 155 – 3" transform="translate(0 0)">
    <path id="Path_1" data-name="Path 1" d="M116.372.367l6.418,7.611a1.867,1.867,0,0,0,2.885,0L131.982.5a.678.678,0,0,1,.178-.147,2.1,2.1,0,0,0-.872-.191H117.177a2.1,2.1,0,0,0-.838.175c.011.012.023.02.033.032" transform="translate(-114.936 -0.16)" fill="#b0a07b"/>
    <path id="Path_2" data-name="Path 2" d="M132.889,1.456a.687.687,0,0,1-.124.209l-6.348,7.181a3.32,3.32,0,0,1-4.971,0l-6.46-7.308a.5.5,0,0,1-.034-.047,2.172,2.172,0,0,0-.316,1.127v9.891a2.191,2.191,0,0,0,2.193,2.188h14.2a2.191,2.191,0,0,0,2.193-2.188V2.618a2.17,2.17,0,0,0-.337-1.162" transform="translate(-114.636 -0.39)" fill="#b0a07b"/>
  </g>
</svg>
