<svg xmlns="http://www.w3.org/2000/svg" xmlns:xlink="http://www.w3.org/1999/xlink" width="11.927" height="20" viewBox="0 0 11.927 20">
  <defs>
    <clipPath id="clip-path">
      <rect id="Rectangle_65" data-name="Rectangle 65" width="11.927" height="20" fill="none"/>
    </clipPath>
  </defs>
  <g id="Group_102" data-name="Group 102" transform="translate(0 0)">
    <g id="Group_101" data-name="Group 101" transform="translate(0 0)" clip-path="url(#clip-path)">
      <path id="Path_1918" data-name="Path 1918" d="M6,18.281c-.4-.718-.774-1.393-1.147-2.068C3.6,13.953,2.361,11.685,1.09,9.437A7.87,7.87,0,0,1,.083,6.9,5.954,5.954,0,0,1,11.8,4.794,5.83,5.83,0,0,1,11.145,8.9q-2,3.639-4,7.28L6,18.281M9.886,5.957A3.925,3.925,0,1,0,5.948,9.891,3.942,3.942,0,0,0,9.886,5.957" transform="translate(0 0)" fill="#231f20"/>
      <path id="Path_1919" data-name="Path 1919" d="M9.47,27.823a3.757,3.757,0,0,1-3.179.013c.4-.489,2.683-.509,3.179-.013" transform="translate(-1.875 -8.183)" fill="#231f20"/>
      <path id="Path_1920" data-name="Path 1920" d="M7.968,8.676a1.046,1.046,0,0,1-.621-.164A.969.969,0,0,1,6.9,7.968a1.086,1.086,0,0,1,.048-.812.453.453,0,0,1,.582-.315.378.378,0,0,1,.216.2,2.707,2.707,0,0,1,.179.329.99.99,0,0,0,.371.426.273.273,0,0,0,.251,0,.509.509,0,0,0,.236-.178.143.143,0,0,1,.161-.067c.086.015.091.085.094.138a.779.779,0,0,1-.093.453,1.031,1.031,0,0,1-.55.47.882.882,0,0,1-.428.072" transform="translate(-2.039 -2.032)" fill="#6f1521"/>
      <path id="Path_1921" data-name="Path 1921" d="M7.789,10.613c-.208,0-.416,0-.624,0-.063,0-.157.031-.157-.084s.1-.084.164-.087c.137,0,.274-.008.411,0,.095.006.126-.018.126-.119q-.008-.835,0-1.672c0-.09-.02-.118-.115-.12a1.343,1.343,0,0,1-.939-.4A1.289,1.289,0,0,1,6.3,7.477a2.534,2.534,0,0,1,.013-1.01A4.281,4.281,0,0,1,6.7,5.379a.493.493,0,0,1,.085-.123c.043-.046.087-.014.11.011s.06.037.024.1a3.438,3.438,0,0,0-.454,1.266,1.837,1.837,0,0,0,.121,1.093,1.1,1.1,0,0,0,.9.618A1.953,1.953,0,0,0,8.3,8.3a.962.962,0,0,0,.736-.833,1.772,1.772,0,0,0-.046-.741c-.013-.043-.006-.091.054-.1s.115-.024.127.046a2.156,2.156,0,0,1,.058.708,1.4,1.4,0,0,1-.22.628,1.169,1.169,0,0,1-.668.455,1.693,1.693,0,0,1-.405.069c-.053,0-.055.029-.055.068q0,.889,0,1.778c0,.057.026.062.071.061.142,0,.283,0,.424,0a.267.267,0,0,1,.082,0c.048.017.112.025.1.1s-.059.072-.112.072Z" transform="translate(-1.864 -1.56)" fill="#231f20"/>
      <path id="Path_1922" data-name="Path 1922" d="M9.457,4.678a1.134,1.134,0,0,1,.3-.848.27.27,0,0,1,.312-.082.281.281,0,0,1,.174.285.747.747,0,0,1-.02.289c-.019.05.013.064.062.067.176.01.284.073.307.2a.352.352,0,0,1-.136.345,1.388,1.388,0,0,1-.859.279c-.069.006-.091-.029-.107-.091a1.848,1.848,0,0,1-.032-.444" transform="translate(-2.818 -1.111)" fill="#6f1521"/>
    </g>
  </g>
</svg>
