<svg xmlns="http://www.w3.org/2000/svg" width="40.003" height="49.705" viewBox="0 0 40.003 49.705">
  <g id="Group_6" data-name="Group 6" transform="translate(-597.891 343.797)">
    <path id="Path_54" data-name="Path 54" d="M37.742,34.484a8.887,8.887,0,0,1-1.371,2.2c.317.27.627.538.972.84a4.353,4.353,0,0,1-1.506.318c.178.222.325.4.514.644a4.434,4.434,0,0,1-2.4-.258,2.145,2.145,0,0,0-1.1-2.092c-.135-.078-.235-.174-.175-.331.234-.627.478-1.249.722-1.873.019-.051.086-.084.165-.154.081.2.151.371.235.578.355-.3.678-.578,1.047-.89.079.415.149.761.211,1.095l2.693-.078" transform="translate(600.152 -341.477)" fill="#fff"/>
    <path id="Path_55" data-name="Path 55" d="M33.576,40.586a1.5,1.5,0,0,1-1.48,1.486,1.424,1.424,0,0,1-1.489-1.393,1.485,1.485,0,0,1,1.47-1.487,1.439,1.439,0,0,1,1.5,1.394" transform="translate(600.006 -341.085)" fill="#fff"/>
    <path id="Path_56" data-name="Path 56" d="M33.537,37.726a1.507,1.507,0,0,1-1.53,1.442,1.449,1.449,0,0,1-1.456-1.442,1.51,1.51,0,0,1,1.529-1.438,1.426,1.426,0,0,1,1.457,1.438" transform="translate(600.002 -341.278)" fill="#fff"/>
    <path id="Path_57" data-name="Path 57" d="M31.008,42.431a1.493,1.493,0,0,1-1.49,1.469,1.417,1.417,0,0,1-1.48-1.4,1.478,1.478,0,0,1,1.484-1.465,1.428,1.428,0,0,1,1.487,1.4" transform="translate(599.836 -340.954)" fill="#fff"/>
    <path id="Path_58" data-name="Path 58" d="M30.918,39.362a1.484,1.484,0,0,1-1.5,1.459,1.411,1.411,0,0,1-1.474-1.4,1.485,1.485,0,0,1,1.49-1.462,1.429,1.429,0,0,1,1.48,1.405" transform="translate(599.829 -341.173)" fill="#fff"/>
    <path id="Path_59" data-name="Path 59" d="M29.412,34.968a1.45,1.45,0,0,1,1.477,1.42,1.522,1.522,0,0,1-1.527,1.448,1.444,1.444,0,0,1-1.471-1.42,1.5,1.5,0,0,1,1.52-1.448" transform="translate(599.826 -341.369)" fill="#fff"/>
    <path id="Path_60" data-name="Path 60" d="M28.438,41.135a1.483,1.483,0,0,1-1.474,1.48,1.418,1.418,0,0,1-1.5-1.383,1.486,1.486,0,0,1,1.471-1.483,1.431,1.431,0,0,1,1.5,1.385" transform="translate(599.657 -341.045)" fill="#fff"/>
    <path id="Path_61" data-name="Path 61" d="M28.32,38.246a1.421,1.421,0,0,1-.446,1.024,1.447,1.447,0,0,1-.349.258,1.515,1.515,0,0,1-.709.184,1.436,1.436,0,0,1-1.493-1.4,1.5,1.5,0,0,1,1.5-1.47,1.452,1.452,0,0,1,1.5,1.4" transform="translate(599.647 -341.252)" fill="#fff"/>
    <path id="Path_62" data-name="Path 62" d="M27.379,39.367a1.646,1.646,0,0,0,.349-.256,1.594,1.594,0,0,1-.349.256" transform="translate(599.793 -341.091)" fill="#fff"/>
    <path id="Path_63" data-name="Path 63" d="M26.286,25.979a19.491,19.491,0,0,1,.494,4.033,7.2,7.2,0,0,1-.292,2.119,2.783,2.783,0,0,1-.425.86,23.266,23.266,0,0,1-3.62,3.92,1.677,1.677,0,0,0-.679,1.418c.034,2.392.025,4.784.017,7.183a1.058,1.058,0,0,0,.322.783,3.536,3.536,0,0,0,2.169,1.113c.438.048.445.056.445.472,0,.938.076.853-.85.859q-3.13.026-6.259.039a1.346,1.346,0,0,1-.2-.031,1.788,1.788,0,0,1-.046-.982c.016-.118.214-.244.36-.309.269-.127.563-.2.837-.312a2.736,2.736,0,0,0,1.062-.822,1.1,1.1,0,0,0,.27-.757c.026-2.378.049-4.755.1-7.135a1.739,1.739,0,0,0-.586-1.425c-.524-.485-1.022-1-1.519-1.509q-.664-.688-1.3-1.4a5.354,5.354,0,0,1-1.335-2.927,14.02,14.02,0,0,1,.762-7.156A13.409,13.409,0,0,1,17.766,21.2c.378-.523.754-1.051,1.094-1.6a2.439,2.439,0,0,0,.024-2.616c-.544-.951-1.1-1.9-1.662-2.848.906.5,1.8,1.01,2.7,1.518a7.092,7.092,0,0,1,.771,1.694,4.184,4.184,0,0,1,.124,2.12,2.966,2.966,0,0,1-.394.914c-.623.954-1.279,1.889-1.919,2.831a9.361,9.361,0,0,0-1.565,4.595,13.209,13.209,0,0,0,.067,2.878,4.383,4.383,0,0,0,1.177,2.493c.746.767,1.5,1.523,2.258,2.28a1.571,1.571,0,0,0,.253.206.666.666,0,0,0,.241.114.306.306,0,0,0,.241-.039.953.953,0,0,0,.192-.144c.678-.64,1.348-1.292,2-1.954a5.872,5.872,0,0,0,1.49-4.8,20.78,20.78,0,0,0-1-4.642,8.158,8.158,0,0,1-.192-.8.7.7,0,0,1,.4-.809,2.441,2.441,0,0,1,.295-.148c.51-.211.711-.142.929.347a15.494,15.494,0,0,1,1,3.187" transform="translate(598.93 -342.87)" fill="#fff"/>
    <path id="Path_64" data-name="Path 64" d="M20.7,34.337a.612.612,0,0,0,.086-.033.436.436,0,0,1-.086.033" transform="translate(599.329 -341.412)" fill="#fff"/>
    <path id="Path_65" data-name="Path 65" d="M20.552,34.339a.317.317,0,0,0,.155,0,.274.274,0,0,1-.155,0" transform="translate(599.319 -341.41)" fill="#fff"/>
    <path id="Path_66" data-name="Path 66" d="M20.327,34.232a.65.65,0,0,0,.241.114.65.65,0,0,1-.241-.114" transform="translate(599.303 -341.417)" fill="#fff"/>
    <path id="Path_67" data-name="Path 67" d="M17.588,12.539q1.122,1.772,2.228,3.562c-.89-.5-1.779-1-2.677-1.491-.25-.423-.5-.845-.748-1.268-.052-.093-.108-.185-.168-.277a2.5,2.5,0,0,1-.406-1.47c.03-1.465.02-2.927.011-4.392-.014-1.7-.042-3.414-.063-5.122,0-.089-.016-.181-.026-.287H13.4c0,.178-.016.356-.016.53q0,4.781,0,9.562c0,.116-.008.234-.014.352s-.022.232-.036.349c-.51-.264-1.021-.521-1.535-.78-.046-1.144-.022-2.29-.01-3.438.024-2.512.06-5.03.092-7.545A1.489,1.489,0,0,1,11.9.55c.082-.482.168-.547.681-.547Q14.6,0,16.609,0c.5,0,.64.14.662.619.007.165,0,.336,0,.508,0,3.43.007,6.861-.006,10.291a2.007,2.007,0,0,0,.324,1.119" transform="translate(598.703 -343.796)" fill="#fff"/>
    <path id="Path_68" data-name="Path 68" d="M13.262,11.423c-.006.115-.019.234-.033.35h0c.013-.117.027-.236.036-.35" transform="translate(598.81 -343.003)" fill="#fff"/>
    <path id="Path_69" data-name="Path 69" d="M14.116,12.143a2.729,2.729,0,0,1-.452.959c-.863,1.205-1.695,2.424-2.547,3.633a2.716,2.716,0,0,0-.514,1.671c.024,1.923-.006,3.84-.016,5.764-.024,3.825-.059,7.65-.059,11.474,0,3.553.035,7.1.059,10.66a2.6,2.6,0,0,1-.244,1.147,1.525,1.525,0,0,1-.946.777,3.064,3.064,0,0,0-.092.3c-.066.251-.231.33-.492.328-.978-.009-1.957,0-2.94,0q-1.967,0-3.935-.006c-.528,0-.538-.012-.682-.517A1.745,1.745,0,0,1,0,46.426Q.048,39.24.1,32.063c.017-2.044.063-4.085.092-6.132a2.906,2.906,0,0,1,.568-1.62c.616-.884,1.266-1.747,1.921-2.6a.641.641,0,0,0,.172-.444c-.011-.159,0-.306,0-.46q.05-3.842.1-7.683c.006-.458.073-.918.052-1.37a.817.817,0,0,1,.863-.886c.979-.042,1.961-.033,2.941,0,.584.014.778.264.778.869,0,2.911.013,5.824-.011,8.738a1.308,1.308,0,0,0,.525,1.185c.306.236.576.511.88.786a1.592,1.592,0,0,0,.04-.257c0-1.309.01-2.62,0-3.933a3.36,3.36,0,0,1,.565-2.038c.84-1.2,1.66-2.41,2.53-3.591a2.416,2.416,0,0,0,.521-1.241c.5.252.992.5,1.49.761" transform="translate(597.891 -343.105)" fill="#fff"/>
    <path id="Path_70" data-name="Path 70" d="M12.445,9.68a10.946,10.946,0,0,1,0,1.883" transform="translate(598.756 -343.124)" fill="#fff"/>
    <path id="Path_71" data-name="Path 71" d="M11.76,9.79a11.516,11.516,0,0,1,0,1.883c-.1.63,1.376.389,1.468-.161a11.345,11.345,0,0,0,0-1.879c0-.67-1.465-.381-1.468.156" transform="translate(598.707 -343.155)" fill="#fff"/>
    <line id="Line_2" data-name="Line 2" y2="1.277" transform="translate(611.287 -332.28)" fill="#fff"/>
    <path id="Path_72" data-name="Path 72" d="M11.839,10.873v1.276c0,.706,1.471.436,1.471-.141V10.73c0-.7-1.471-.433-1.471.144" transform="translate(598.713 -343.081)" fill="#fff"/>
    <path id="Path_73" data-name="Path 73" d="M17.433,13.446c.51.851,1.058,1.673,1.624,2.489" transform="translate(599.101 -342.863)" fill="#fff"/>
    <path id="Path_74" data-name="Path 74" d="M16.81,13.794c.512.847,1.061,1.673,1.624,2.486.351.511,1.753-.029,1.342-.625-.563-.813-1.111-1.639-1.624-2.485-.316-.525-1.719,0-1.342.623" transform="translate(599.052 -342.898)" fill="#fff"/>
  </g>
</svg>
