<svg xmlns="http://www.w3.org/2000/svg" xmlns:xlink="http://www.w3.org/1999/xlink" width="18.641" height="20" viewBox="0 0 18.641 20">
  <defs>
    <clipPath id="clip-path">
      <rect id="Rectangle_64" data-name="Rectangle 64" width="18.641" height="20" fill="none"/>
    </clipPath>
  </defs>
  <g id="Group_98" data-name="Group 98" clip-path="url(#clip-path)">
    <path id="Path_1917" data-name="Path 1917" d="M13.034,20a8.062,8.062,0,0,1-3.491-.869,14.618,14.618,0,0,1-3.521-2.481,25.932,25.932,0,0,1-2.987-3.3A16.835,16.835,0,0,1,.773,9.573,8.64,8.64,0,0,1,.029,5.439a6.082,6.082,0,0,1,2.1-4.187c.361-.316.727-.629,1.1-.926A1.268,1.268,0,0,1,4.84.248a1.921,1.921,0,0,1,.461.4c.345.441.682.891.994,1.355a7.777,7.777,0,0,1,.97,1.807,2.073,2.073,0,0,1-.023,1.608,2.177,2.177,0,0,1-.606.749c-.386.32-.773.641-1.17.947a1.56,1.56,0,0,0-.577,1.625,5.368,5.368,0,0,0,1.026,2.073q.813,1.067,1.718,2.065a7.441,7.441,0,0,0,2.042,1.654A1.992,1.992,0,0,0,11,14.8a1.565,1.565,0,0,0,.768-.423c.439-.406.868-.826,1.331-1.2A1.81,1.81,0,0,1,15,12.92a4.2,4.2,0,0,1,1.252.763c.6.52,1.194,1.044,1.762,1.6a2.465,2.465,0,0,1,.488.735,1.176,1.176,0,0,1-.278,1.452,20.451,20.451,0,0,1-1.706,1.462,5.5,5.5,0,0,1-2.712,1.017c-.258.028-.516.038-.775.055" transform="translate(0 0)" fill="#b0a07b"/>
  </g>
</svg>
