<svg xmlns="http://www.w3.org/2000/svg" width="213.483" height="42.846" viewBox="0 0 213.483 42.846">
  <g id="Group_16" data-name="Group 16" transform="translate(-1411.376 -1314.614)">
    <g id="Group_14" data-name="Group 14">
      <path id="Path_77" data-name="Path 77" d="M121.517,79.344a7.72,7.72,0,0,1-1.18,1.894c.271.232.538.462.836.723a3.687,3.687,0,0,1-1.3.273c.153.192.28.347.443.556a3.832,3.832,0,0,1-2.068-.223,1.844,1.844,0,0,0-.95-1.8c-.115-.068-.2-.149-.151-.283.2-.54.413-1.076.622-1.612.016-.047.074-.072.142-.134.07.174.131.319.2.5.305-.26.584-.5.9-.765.067.355.127.654.181.943.777-.025,1.5-.044,2.318-.068" transform="translate(1413.842 1267)" fill="#b0a07b"/>
      <path id="Path_78" data-name="Path 78" d="M117.806,84.945a1.292,1.292,0,0,1-1.274,1.278,1.222,1.222,0,0,1-1.281-1.2,1.276,1.276,0,0,1,1.264-1.279,1.238,1.238,0,0,1,1.291,1.2" transform="translate(1413.842 1267)" fill="#b0a07b"/>
      <path id="Path_79" data-name="Path 79" d="M117.77,82.307a1.3,1.3,0,0,1-1.317,1.24,1.245,1.245,0,0,1-1.252-1.24,1.3,1.3,0,0,1,1.314-1.237,1.228,1.228,0,0,1,1.255,1.237" transform="translate(1413.842 1267)" fill="#b0a07b"/>
      <path id="Path_80" data-name="Path 80" d="M115.438,86.647a1.285,1.285,0,0,1-1.282,1.264,1.221,1.221,0,0,1-1.274-1.206,1.272,1.272,0,0,1,1.277-1.262,1.229,1.229,0,0,1,1.279,1.2" transform="translate(1413.842 1267)" fill="#b0a07b"/>
      <path id="Path_81" data-name="Path 81" d="M115.356,83.818a1.277,1.277,0,0,1-1.288,1.256,1.215,1.215,0,0,1-1.268-1.209,1.275,1.275,0,0,1,1.282-1.256,1.228,1.228,0,0,1,1.274,1.209" transform="translate(1413.842 1267)" fill="#b0a07b"/>
      <path id="Path_82" data-name="Path 82" d="M114.057,79.852a1.247,1.247,0,0,1,1.271,1.223,1.31,1.31,0,0,1-1.314,1.245,1.241,1.241,0,0,1-1.265-1.222,1.3,1.3,0,0,1,1.308-1.246" transform="translate(1413.842 1267)" fill="#b0a07b"/>
      <path id="Path_83" data-name="Path 83" d="M113.152,88.221a1.284,1.284,0,0,1-1.279,1.265,1.218,1.218,0,0,1-1.276-1.2,1.273,1.273,0,0,1,1.274-1.266,1.235,1.235,0,0,1,1.281,1.2" transform="translate(1413.842 1267)" fill="#b0a07b"/>
      <path id="Path_84" data-name="Path 84" d="M113.07,85.454a1.275,1.275,0,0,1-1.268,1.273,1.218,1.218,0,0,1-1.288-1.19,1.276,1.276,0,0,1,1.265-1.275,1.23,1.23,0,0,1,1.291,1.192" transform="translate(1413.842 1267)" fill="#b0a07b"/>
      <path id="Path_85" data-name="Path 85" d="M112.959,82.789a1.221,1.221,0,0,1-.382.881,1.423,1.423,0,0,1-.3.223,1.33,1.33,0,0,1-.611.158,1.238,1.238,0,0,1-1.285-1.2,1.292,1.292,0,0,1,1.288-1.265,1.25,1.25,0,0,1,1.291,1.2" transform="translate(1413.842 1267)" fill="#b0a07b"/>
      <path id="Path_86" data-name="Path 86" d="M112.276,83.892a1.423,1.423,0,0,0,.3-.221,1.374,1.374,0,0,1-.3.221" transform="translate(1413.842 1267)" fill="#b0a07b"/>
      <path id="Path_87" data-name="Path 87" d="M110.582,70.838a16.752,16.752,0,0,1,.425,3.47,6.193,6.193,0,0,1-.252,1.825,2.365,2.365,0,0,1-.366.739,20.024,20.024,0,0,1-3.114,3.375,1.438,1.438,0,0,0-.585,1.22c.029,2.058.02,4.118.015,6.182a.907.907,0,0,0,.277.673,3.032,3.032,0,0,0,1.867.957c.377.042.383.048.383.409,0,.807.065.733-.732.738q-2.692.021-5.387.034a1.336,1.336,0,0,1-.173-.028,1.546,1.546,0,0,1-.04-.846c.015-.1.185-.208.31-.265.232-.109.485-.17.72-.269a2.339,2.339,0,0,0,.914-.706.947.947,0,0,0,.232-.651c.023-2.046.043-4.093.091-6.14a1.5,1.5,0,0,0-.5-1.227c-.452-.418-.881-.861-1.308-1.3-.381-.394-.752-.8-1.115-1.205a4.608,4.608,0,0,1-1.149-2.52,12.053,12.053,0,0,1,.655-6.157,11.546,11.546,0,0,1,1.5-2.422c.325-.451.649-.906.941-1.377a2.093,2.093,0,0,0,.02-2.249c-.468-.821-.947-1.636-1.43-2.452.781.429,1.552.868,2.326,1.306a6.027,6.027,0,0,1,.665,1.458,3.609,3.609,0,0,1,.107,1.823,2.594,2.594,0,0,1-.34.788c-.537.82-1.1,1.625-1.652,2.435a8.062,8.062,0,0,0-1.346,3.955,11.337,11.337,0,0,0,.059,2.476,3.755,3.755,0,0,0,1.012,2.146c.642.659,1.294,1.31,1.944,1.962a1.25,1.25,0,0,0,.218.177.609.609,0,0,0,.207.1.245.245,0,0,0,.134,0,.289.289,0,0,0,.073-.03.786.786,0,0,0,.165-.126c.584-.55,1.16-1.111,1.718-1.68a5.055,5.055,0,0,0,1.283-4.133,17.916,17.916,0,0,0-.86-3.994,7,7,0,0,1-.164-.687.6.6,0,0,1,.34-.7,2.485,2.485,0,0,1,.253-.126c.439-.182.612-.123.8.3a13.419,13.419,0,0,1,.859,2.742" transform="translate(1413.842 1267)" fill="#b0a07b"/>
      <path id="Path_88" data-name="Path 88" d="M106.115,79.269a.41.41,0,0,0,.074-.03.311.311,0,0,1-.074.03" transform="translate(1413.842 1267)" fill="#b0a07b"/>
      <path id="Path_89" data-name="Path 89" d="M105.981,79.272a.284.284,0,0,0,.133,0,.241.241,0,0,1-.133,0" transform="translate(1413.842 1267)" fill="#b0a07b"/>
      <path id="Path_90" data-name="Path 90" d="M105.774,79.174a.624.624,0,0,0,.207.1.624.624,0,0,1-.207-.1" transform="translate(1413.842 1267)" fill="#b0a07b"/>
      <path id="Path_91" data-name="Path 91" d="M102.892,58.407q.965,1.522,1.917,3.065c-.765-.435-1.531-.865-2.3-1.284-.215-.364-.428-.728-.644-1.092-.045-.079-.093-.158-.144-.238a2.154,2.154,0,0,1-.35-1.264c.026-1.262.017-2.52.009-3.782-.011-1.467-.036-2.936-.054-4.406,0-.077-.014-.156-.022-.249H99.286c0,.153-.014.307-.014.457q0,4.118,0,8.229c0,.1,0,.2-.011.3s-.02.2-.031.3c-.439-.228-.879-.449-1.321-.67-.04-.986-.02-1.974-.009-2.959.02-2.164.051-4.329.08-6.494a1.271,1.271,0,0,1,.017-.238c.071-.413.144-.471.586-.471q1.737,0,3.47,0c.427,0,.55.121.569.534.006.142,0,.29,0,.436,0,2.952.006,5.905-.005,8.858a1.733,1.733,0,0,0,.278.963" transform="translate(1413.842 1267)" fill="#b0a07b"/>
      <path id="Path_92" data-name="Path 92" d="M99.259,58.146c-.006.1-.017.2-.028.3h0c.011-.1.022-.2.031-.3" transform="translate(1413.842 1267)" fill="#b0a07b"/>
      <path id="Path_93" data-name="Path 93" d="M99.182,58.729a2.314,2.314,0,0,1-.389.824c-.743,1.038-1.458,2.088-2.193,3.128a2.336,2.336,0,0,0-.442,1.437c.02,1.655,0,3.305-.014,4.961-.02,3.292-.051,6.584-.051,9.877,0,3.055.031,6.113.051,9.171a2.235,2.235,0,0,1-.21.989,1.312,1.312,0,0,1-.814.668c-.028.087-.059.169-.079.259-.057.217-.2.285-.423.283-.843-.009-1.685,0-2.53,0q-1.693,0-3.387,0c-.454,0-.463-.01-.587-.443a1.505,1.505,0,0,1-1.08-1.642q.041-6.182.084-12.361c.014-1.757.054-3.514.079-5.276a2.483,2.483,0,0,1,.489-1.392c.53-.762,1.089-1.506,1.653-2.243a.552.552,0,0,0,.148-.382c-.009-.134,0-.263,0-.394q.042-3.306.085-6.612c.006-.394.062-.791.045-1.18a.705.705,0,0,1,.743-.763c.842-.035,1.689-.027,2.531,0,.5.014.669.228.669.75,0,2.5.011,5.011-.009,7.52A1.124,1.124,0,0,0,94,66.914c.264.2.5.441.757.679a1.471,1.471,0,0,0,.034-.222c0-1.127.008-2.257,0-3.385a2.9,2.9,0,0,1,.486-1.755C96,61.2,96.7,60.157,97.451,59.143a2.088,2.088,0,0,0,.449-1.068c.431.217.853.433,1.282.654" transform="translate(1413.842 1267)" fill="#b0a07b"/>
      <path id="Path_94" data-name="Path 94" d="M98.507,56.539a9.413,9.413,0,0,1,0,1.619" transform="translate(1413.842 1267)" fill="#b0a07b"/>
      <path id="Path_95" data-name="Path 95" d="M97.875,56.608a9.945,9.945,0,0,1,0,1.619c-.091.542,1.184.336,1.263-.136a9.833,9.833,0,0,0,0-1.619c0-.576-1.261-.327-1.263.136" transform="translate(1413.842 1267)" fill="#b0a07b"/>
      <line id="Line_6" data-name="Line 6" y2="1.099" transform="translate(1512.424 1324.543)" fill="#b0a07b"/>
      <path id="Path_96" data-name="Path 96" d="M97.948,57.6v1.1c0,.606,1.267.374,1.267-.123v-1.1c0-.6-1.267-.374-1.267.123" transform="translate(1413.842 1267)" fill="#b0a07b"/>
      <path id="Path_97" data-name="Path 97" d="M103.106,60.011c.439.73.911,1.44,1.4,2.142" transform="translate(1413.842 1267)" fill="#b0a07b"/>
      <path id="Path_98" data-name="Path 98" d="M102.528,60.28c.441.729.912,1.439,1.4,2.141.3.438,1.508-.027,1.155-.538-.485-.7-.957-1.411-1.4-2.141-.272-.451-1.48,0-1.155.538" transform="translate(1413.842 1267)" fill="#b0a07b"/>
    </g>
    <line id="Line_7" data-name="Line 7" x2="79" transform="translate(1411.876 1344.798)" fill="none" stroke="#b0a07d" stroke-linecap="round" stroke-width="1"/>
    <line id="Line_8" data-name="Line 8" x2="79" transform="translate(1545.359 1344.798)" fill="none" stroke="#b0a07d" stroke-linecap="round" stroke-width="1"/>
  </g>
</svg>
