<svg xmlns="http://www.w3.org/2000/svg" xmlns:xlink="http://www.w3.org/1999/xlink" width="72" height="72.027" viewBox="0 0 72 72.027">
  <defs>
    <clipPath id="clip-path">
      <rect id="Rectangle_133" data-name="Rectangle 133" width="72" height="72.027" fill="none"/>
    </clipPath>
  </defs>
  <g id="Group_214" data-name="Group 214" clip-path="url(#clip-path)">
    <path id="Path_1939" data-name="Path 1939" d="M35.047,72.027a19.6,19.6,0,0,1-2.564-.89,7.7,7.7,0,0,1-3.729-9.457c.068-.192.142-.382.216-.58A7.927,7.927,0,0,1,22.6,50.121a7.9,7.9,0,0,1-6.326-10.982c-.671-.192-1.361-.331-2.007-.584a7.375,7.375,0,0,1-4.683-5.221,1.015,1.015,0,0,0-.99-.913c-1.111-.147-2.205-.425-3.3-.66a1.479,1.479,0,0,1-1.231-1.112,20.319,20.319,0,0,1-.708-8.959,11.105,11.105,0,0,1,2.225-5.016c.128-.161.242-.333.35-.48-1.108-.493-2.207-.932-3.255-1.469a14.953,14.953,0,0,1-2-1.306A1.333,1.333,0,0,1,.2,11.566c1.75-3.073,4.071-5.5,7.625-6.423.81-.211,1.654-.29,2.543-.441-.109-.6-.235-1.232-.334-1.866A1.537,1.537,0,0,1,11.363.83,17.668,17.668,0,0,1,19.14.209a8.4,8.4,0,0,1,6.893,6.655c.064.289.139.576.223.928.21-.126.372-.207.518-.313A13.725,13.725,0,0,1,38.779,5.261a1.012,1.012,0,0,0,1.161-.321A20.587,20.587,0,0,1,46.806.265c.906-.411,1.54-.31,2.009.327.45.612.392,1.215-.265,1.959a7.115,7.115,0,0,0-1.675,6.92c.933,3.49,5.292,5.182,8.1,3.155a4.093,4.093,0,0,0,1.5-4.5A2.994,2.994,0,0,0,52.95,6.065,2.145,2.145,0,0,0,51.234,8.18,1.453,1.453,0,0,0,52.9,9.722c.14-.01.28-.023.421-.031a1.378,1.378,0,0,1,1.568,1.076,1.407,1.407,0,0,1-1.138,1.671A4.317,4.317,0,0,1,48.47,7.5a4.766,4.766,0,0,1,3.376-4.026,5.471,5.471,0,0,1,5.581,1.151A6.688,6.688,0,0,1,56.89,14.7a8.2,8.2,0,0,1-12.723-4.495,10.251,10.251,0,0,1-.116-5.025c-2.772,1.643-6.214,6.367-6.529,11.533a21.228,21.228,0,0,1,2.649,1.263A20.992,20.992,0,0,1,42.4,19.892a7.789,7.789,0,0,1,13.869,3.016,30.9,30.9,0,0,1,3.047-1.1,8.248,8.248,0,0,1,7.622,2.038A19.221,19.221,0,0,1,71.2,29.3a1.385,1.385,0,0,1-.414,1.984c-.57.447-1.177.846-1.62,1.162a31.15,31.15,0,0,1,2.149,3.924,13.124,13.124,0,0,1,.072,8.151c-.22.844-.89,1.143-1.825,1a15.056,15.056,0,0,1-5.475-1.856c-.1.6-.168,1.125-.275,1.639-.717,3.431-2.838,5.9-5.523,7.96-.89.682-1.875,1.239-2.8,1.877a1.717,1.717,0,0,1-2.144.01c-1.037-.71-2.1-1.378-3.17-2.071-.32,4.458-2.664,7.133-7.089,8A7.753,7.753,0,0,1,37.335,71.9a1.9,1.9,0,0,0-.318.124Zm-2.7-49.154.3-.161c.1-1.557.316-3.118.263-4.67a5.221,5.221,0,0,0-3.039-4.932,13.34,13.34,0,0,0-3.506-.879,1.455,1.455,0,0,0-1.732,1.683c.107,1.919.233,3.837.348,5.756a3.393,3.393,0,0,1,.011.56,1.4,1.4,0,0,1-1.361,1.345,1.358,1.358,0,0,1-1.4-1.3c-.131-1.414-.208-2.834-.308-4.251l-.188-.149c-.264.316-.506.652-.794.944-1.236,1.251-2.471,2.5-3.736,3.725a1.4,1.4,0,1,1-1.987-1.957c.343-.384.722-.736,1.087-1.1,1.023-1.024,2.046-2.046,3.186-3.184-.526-.043-.891-.073-1.257-.1-1.143-.088-2.3-.114-3.428-.281a1.315,1.315,0,0,1-1-1.872,1.457,1.457,0,0,1,1.621-.833c2.059.131,4.119.253,6.178.384.586.037,2.007-1.087,2-1.666-.046-3.187-1.295-6.529-5.42-7.038a14.428,14.428,0,0,0-5.346.477c.382.861.725,1.619,1.051,2.383a2.2,2.2,0,0,1,.218.726c.048,1.051-.787,1.623-2.017,1.337a7.287,7.287,0,0,0-4.866.508,9.292,9.292,0,0,0-3.89,3.533,9.438,9.438,0,0,0,6.822,1.61,1.352,1.352,0,0,1,1.676.807c.331.791-.045,1.516-1.014,1.913A7.313,7.313,0,0,0,6.432,21a14.845,14.845,0,0,0,.1,7.911c.033.144.272.3.443.345a16.128,16.128,0,0,0,5.5.524c3.327-.308,5.89-1.739,7.178-5a1.354,1.354,0,0,1,1.687-.893,1.471,1.471,0,0,1,1,1.708,13.5,13.5,0,0,0-.077,2.515,9.192,9.192,0,0,0,1.658,4.308c2.73-1.7,5-4.992,3.989-8.926a1.372,1.372,0,0,1,.557-1.613,1.517,1.517,0,0,1,1.706.089,20.269,20.269,0,0,0,2.172.905m26.81,1.909c2.843,2.163,4.187,4.886,3.334,8.381s-3.309,5.331-6.77,5.966a7.636,7.636,0,0,1-.046,6.465,7.96,7.96,0,0,1-5,4.25c1.249.9,2.339,1.706,3.456,2.467a.748.748,0,0,0,.663-.058,27.782,27.782,0,0,0,2.507-1.8A10.59,10.59,0,0,0,60.98,45.1a7.167,7.167,0,0,0-.338-4.674c-.052-.13-.1-.26-.147-.394a1.375,1.375,0,0,1,2.362-1.356,22.906,22.906,0,0,0,2.27,2.27,8.357,8.357,0,0,0,3.816,1.581,8.128,8.128,0,0,0-3.36-9.041,1.469,1.469,0,0,1-.859-1.611c.139-.725.661-.967,1.325-1.16a18.057,18.057,0,0,0,2.167-.935,14.634,14.634,0,0,0-3.225-3.912,5.551,5.551,0,0,0-5.833-1.083m-18.2,39.6a4.919,4.919,0,1,0-5.024,4.828,4.96,4.96,0,0,0,5.024-4.828M29.681,58.237a4.919,4.919,0,1,0-4.9-4.958,4.956,4.956,0,0,0,4.9,4.958m12.7,0a4.919,4.919,0,1,0-4.933-4.921,4.958,4.958,0,0,0,4.933,4.921m-.106-21.951a4.92,4.92,0,1,0-4.836-5.011,4.976,4.976,0,0,0,4.836,5.011M50.1,31.4A4.919,4.919,0,1,0,55,26.447,4.946,4.946,0,0,0,50.1,31.4M18.442,42.309a4.919,4.919,0,1,0,4.963-4.887,4.948,4.948,0,0,0-4.963,4.887m12.663.066A4.919,4.919,0,1,0,36,37.422a4.946,4.946,0,0,0-4.9,4.953m12.664-.056a4.918,4.918,0,1,0,4.953-4.9,4.947,4.947,0,0,0-4.953,4.9M30.9,26.7a9.258,9.258,0,0,1-1.686,4.394c-.961,1.247-2.084,2.368-3.148,3.558a4.849,4.849,0,0,0,5.641,1.2,4.942,4.942,0,0,0,2.841-5.164A4.665,4.665,0,0,0,30.9,26.7m17.725.12a20.431,20.431,0,0,1,2.205-1.907,21.076,21.076,0,0,1,2.643-1.266,4.8,4.8,0,0,0-5.007-4.093c-2.382.1-4.556,2.106-4.552,4.2,2.6.931,2.6.931,4.711,3.063M12.277,32.643A4.818,4.818,0,0,0,15.733,36.1a4.738,4.738,0,0,0,4.88-1.373c.818-.826.782-.879.253-1.909-.319-.622-.58-1.275-.845-1.923-.144-.35-.242-.719-.384-1.151a11.9,11.9,0,0,1-7.359,2.9M37.4,7.815a11,11,0,0,0-8.846,1.833c2.888.682,5.08,2.11,6.268,4.6.851-2.123,1.7-4.257,2.578-6.434M35.9,19.591c-.387,1.96-.771,3.895-1.169,5.909l1.32,1.394a8.019,8.019,0,0,1,4.766-3.127A4.716,4.716,0,0,0,35.9,19.591" transform="translate(0 0)" fill="#b0a07b"/>
    <path id="Path_1940" data-name="Path 1940" d="M11.551,20.816a1.421,1.421,0,0,1,1.4,1.382,1.463,1.463,0,0,1-1.4,1.4,1.433,1.433,0,0,1-1.393-1.4,1.4,1.4,0,0,1,1.386-1.389" transform="translate(0.684 1.401)" fill="#b0a07b"/>
  </g>
</svg>
