<svg id="Component_112_2" data-name="Component 112 – 2" xmlns="http://www.w3.org/2000/svg" width="18.591" height="18.59" viewBox="0 0 18.591 18.59">
  <path id="Path_3" data-name="Path 3" d="M46.828,3.263a1.091,1.091,0,1,0,1.09,1.09,1.09,1.09,0,0,0-1.09-1.09" transform="translate(-32.612 0.057)" fill="#b0a07b"/>
  <path id="Path_4" data-name="Path 4" d="M42.126,4.637a4.581,4.581,0,1,0,4.58,4.58,4.586,4.586,0,0,0-4.58-4.58m0,7.515a2.935,2.935,0,1,1,2.935-2.935,2.937,2.937,0,0,1-2.935,2.935" transform="translate(-32.755 0.078)" fill="#b0a07b"/>
  <path id="Path_5" data-name="Path 5" d="M45.84,18.59H38.418a5.59,5.59,0,0,1-5.584-5.584V5.584A5.59,5.59,0,0,1,38.418,0H45.84a5.591,5.591,0,0,1,5.585,5.584v7.422A5.591,5.591,0,0,1,45.84,18.59M38.418,1.749a3.839,3.839,0,0,0-3.835,3.835v7.422a3.839,3.839,0,0,0,3.835,3.835H45.84a3.839,3.839,0,0,0,3.835-3.835V5.584A3.839,3.839,0,0,0,45.84,1.749Z" transform="translate(-32.834)" fill="#b0a07b"/>
</svg>
