<svg xmlns="http://www.w3.org/2000/svg" xmlns:xlink="http://www.w3.org/1999/xlink" width="300.622" height="48.339" viewBox="0 0 300.622 48.339">
  <defs>
    <clipPath id="clip-path">
      <rect id="Rectangle_175" data-name="Rectangle 175" width="38.904" height="48.339" fill="#fff"/>
    </clipPath>
  </defs>
  <g id="Group_625" data-name="Group 625" transform="translate(-300 -10.831)">
    <g id="Group_623" data-name="Group 623" transform="translate(355.572 27.309)">
      <path id="Path_8" data-name="Path 8" d="M56.955,28.868A4.038,4.038,0,0,0,57.5,31.2a2.6,2.6,0,0,0,2.227.769,2.57,2.57,0,0,0,2.217-.769,4.035,4.035,0,0,0,.54-2.311V21.506h2.587v7.876c0,.151-.006.293-.018.431a6.4,6.4,0,0,1-.163,1.273,3.3,3.3,0,0,1-1.952,2.287,6.5,6.5,0,0,1-1.789.464c-.24.033-.48.058-.719.067s-.475.018-.7.018-.443-.007-.677-.018-.471-.035-.711-.067a6.217,6.217,0,0,1-1.814-.446,3.327,3.327,0,0,1-1.44-1.13,3.194,3.194,0,0,1-.532-1.175,6.717,6.717,0,0,1-.153-1.273c-.012-.138-.018-.28-.018-.431V21.506h2.569Z" transform="translate(-54.386 -21.506)" fill="#fff"/>
      <path id="Path_9" data-name="Path 9" d="M71.16,24.609a4.928,4.928,0,0,1,2.775.7,2.986,2.986,0,0,1,.993,2.62v5.7H72.546V28.2a1.89,1.89,0,0,0-.308-1.267,1.79,1.79,0,0,0-1.269-.327L69.053,26.6v7.037H66.671V24.609Z" transform="translate(-54.226 -21.405)" fill="#fff"/>
      <path id="Path_10" data-name="Path 10" d="M76.422,21.5h2.5v2.244h-2.5Zm0,3.272h2.5V33.8h-2.5Z" transform="translate(-54.055 -21.503)" fill="#fff"/>
      <path id="Path_11" data-name="Path 11" d="M82.457,24.609l2.5,6.4,2.654-6.4H90.18l-4.007,9.024H83.6l-3.818-9.024Z" transform="translate(-54.1 -21.405)" fill="#fff"/>
      <path id="Path_12" data-name="Path 12" d="M92.851,33.4a3.243,3.243,0,0,1-1.585-.967,3.661,3.661,0,0,1-.795-1.371,6.4,6.4,0,0,1-.3-1.576v-.572a1.642,1.642,0,0,1,.018-.232,5.985,5.985,0,0,1,.3-1.514,3.676,3.676,0,0,1,.777-1.329,3.207,3.207,0,0,1,1.585-.983,7.4,7.4,0,0,1,1.859-.231l3.477-.018v1.883H95.036a3.923,3.923,0,0,0-1.592.3c-.4.187-.612.659-.634,1.411l5.378-.016v1.884H92.809c.022.787.223,1.267.6,1.438a4.017,4.017,0,0,0,1.609.256l3.169-.015v1.883H94.71a7.445,7.445,0,0,1-1.859-.233" transform="translate(-53.955 -21.405)" fill="#fff"/>
      <path id="Path_13" data-name="Path 13" d="M103.231,24.609q1.933.017,2.244.891a7.018,7.018,0,0,1,.29,2.345v.566l-2.277-.016v-.378a2.863,2.863,0,0,0-.2-1.453c-.131-.138-.608-.208-1.429-.208H101.6v7.278H99.222V24.609Z" transform="translate(-53.831 -21.405)" fill="#fff"/>
      <path id="Path_14" data-name="Path 14" d="M111.755,31.75a.154.154,0,0,0,.067.018h.068a2.031,2.031,0,0,0,.789-.189.7.7,0,0,0,.358-.7.676.676,0,0,0-.342-.668,2.023,2.023,0,0,0-.736-.2h-.206l-2.055-.018a5.027,5.027,0,0,1-2.269-.394q-.832-.413-.848-2.089a2.568,2.568,0,0,1,.857-2.228,3.813,3.813,0,0,1,2.329-.65l5.121-.015v1.883h-4.214a.356.356,0,0,1-.093.016h-.574a1.734,1.734,0,0,0-.591.137.628.628,0,0,0-.368.445c-.092.4-.012.676.24.822a1.677,1.677,0,0,0,.873.223l2.158-.016a3.826,3.826,0,0,1,2.125.589,2.317,2.317,0,0,1,.905,1.977v.052a3.261,3.261,0,0,1-.623,2,2.131,2.131,0,0,1-1.841.9h-6.149V31.75Z" transform="translate(-53.778 -21.405)" fill="#fff"/>
      <path id="Path_15" data-name="Path 15" d="M293.17,31.75a.158.158,0,0,0,.069.018h.069a2.03,2.03,0,0,0,.789-.189.7.7,0,0,0,.358-.7.676.676,0,0,0-.343-.668,2.028,2.028,0,0,0-.737-.2h-.206l-2.054-.018a5.024,5.024,0,0,1-2.269-.394q-.831-.413-.848-2.089a2.571,2.571,0,0,1,.856-2.228,3.816,3.816,0,0,1,2.33-.65l5.121-.015v1.883h-4.215a.355.355,0,0,1-.093.016h-.574a1.729,1.729,0,0,0-.591.137.629.629,0,0,0-.369.445c-.091.4-.011.676.241.822a1.677,1.677,0,0,0,.873.223l2.158-.016a3.826,3.826,0,0,1,2.125.589,2.317,2.317,0,0,1,.905,1.977v.052a3.255,3.255,0,0,1-.624,2,2.128,2.128,0,0,1-1.84.9h-6.15V31.75Z" transform="translate(-51.717 -21.405)" fill="#fff"/>
      <path id="Path_16" data-name="Path 16" d="M121.6,24.609a7.815,7.815,0,0,1,1.517.179,2.684,2.684,0,0,1,1.309.745,2.612,2.612,0,0,1,.695,1.13A4.615,4.615,0,0,1,125.319,28v5.635h-6.4a2.821,2.821,0,0,1-2.125-.764,2.7,2.7,0,0,1-.668-2.115,2.289,2.289,0,0,1,1.148-2.107,5.759,5.759,0,0,1,2.449-.478l3.135-.018q.051-1.113-.574-1.387a3.972,3.972,0,0,0-1.585-.274l-3.973-.016V24.609Zm-1.714,7.21h2.98V29.952h-2.81a.156.156,0,0,1-.069.017h-.069a2.722,2.722,0,0,0-.889.179.754.754,0,0,0-.429.764q-.033.669.369.788a3.68,3.68,0,0,0,.916.137Z" transform="translate(-53.677 -21.405)" fill="#fff"/>
      <rect id="Rectangle_2" data-name="Rectangle 2" width="2.485" height="12.297" transform="translate(73.36 0.001)" fill="#fff"/>
      <path id="Path_17" data-name="Path 17" d="M138.647,23.063q1.121-1.541,4.924-1.541l3.938-.018v2.143h-4.161a3.69,3.69,0,0,0-2.39.7,3.191,3.191,0,0,0-.847,2.311l7.4-.018v2.125h-7.4V33.8h-2.585V28.15q0-3.544,1.121-5.087" transform="translate(-53.45 -21.503)" fill="#fff"/>
      <path id="Path_18" data-name="Path 18" d="M148.4,21.5h2.5v2.244h-2.5Zm0,3.272h2.5V33.8h-2.5Z" transform="translate(-53.175 -21.503)" fill="#fff"/>
      <path id="Path_19" data-name="Path 19" d="M157.207,24.609a4.928,4.928,0,0,1,2.775.7,2.986,2.986,0,0,1,.993,2.62v5.7h-2.381V28.2a1.89,1.89,0,0,0-.308-1.267,1.79,1.79,0,0,0-1.269-.327L155.1,26.6v7.037h-2.382V24.609Z" transform="translate(-53.243 -21.405)" fill="#fff"/>
      <path id="Path_20" data-name="Path 20" d="M164.662,33.4a3.243,3.243,0,0,1-1.585-.967,3.661,3.661,0,0,1-.795-1.371,6.4,6.4,0,0,1-.3-1.576v-.572a1.643,1.643,0,0,1,.018-.232,5.983,5.983,0,0,1,.3-1.514,3.676,3.676,0,0,1,.777-1.329,3.206,3.206,0,0,1,1.585-.983,7.4,7.4,0,0,1,1.859-.231L170,24.608v1.883h-3.151a3.923,3.923,0,0,0-1.592.3c-.4.187-.612.659-.634,1.411L170,28.188v1.884H164.62c.022.787.223,1.267.6,1.438a4.017,4.017,0,0,0,1.609.256L170,31.751v1.883h-3.477a7.445,7.445,0,0,1-1.859-.233" transform="translate(-53.131 -21.405)" fill="#fff"/>
      <path id="Path_21" data-name="Path 21" d="M179.008,21.5l2.843,9.454,2.4-9.454H187.3l2.757,9.454,2.654-9.454h2.657l-3.8,12.3h-3.169l-2.62-9.181-2.3,9.181h-3.152l-4.075-12.3Z" transform="translate(-53.251 -21.503)" fill="#fff"/>
      <path id="Path_22" data-name="Path 22" d="M195.3,21.5h2.5v2.244h-2.5Zm0,3.272h2.5V33.8h-2.5Z" transform="translate(-52.602 -21.503)" fill="#fff"/>
      <path id="Path_23" data-name="Path 23" d="M204.107,24.609a4.928,4.928,0,0,1,2.775.7,2.986,2.986,0,0,1,.993,2.62v5.7h-2.381V28.2a1.89,1.89,0,0,0-.308-1.267,1.79,1.79,0,0,0-1.269-.327L202,26.6v7.037h-2.382V24.609Z" transform="translate(-52.707 -21.405)" fill="#fff"/>
      <path id="Path_24" data-name="Path 24" d="M211.562,33.4a3.238,3.238,0,0,1-1.585-.967,3.661,3.661,0,0,1-.795-1.371,6.4,6.4,0,0,1-.3-1.576v-.572a1.645,1.645,0,0,1,.018-.232,5.985,5.985,0,0,1,.3-1.514,3.676,3.676,0,0,1,.777-1.329,3.2,3.2,0,0,1,1.585-.983,7.4,7.4,0,0,1,1.859-.231l3.477-.018v1.883h-3.151a3.923,3.923,0,0,0-1.592.3c-.4.187-.612.659-.634,1.411l5.378-.016v1.884H211.52c.022.787.223,1.267.6,1.438a4.017,4.017,0,0,0,1.609.256l3.169-.015v1.883h-3.477a7.444,7.444,0,0,1-1.859-.233" transform="translate(-52.594 -21.405)" fill="#fff"/>
      <path id="Path_25" data-name="Path 25" d="M247.361,23.7a2.9,2.9,0,0,0-1.413.351,1.351,1.351,0,0,0-.574,1.277,1.126,1.126,0,0,0,.488,1.028,2.086,2.086,0,0,0,1.139.309l3.425-.018c.124.012.258.018.4.018s.273,0,.41.016a5.658,5.658,0,0,1,1.182.2,2.542,2.542,0,0,1,1.643,1.5,4.032,4.032,0,0,1,.258,1.1c.009.115.02.224.023.334s.011.22.011.333a3.3,3.3,0,0,1-1.182,2.9,5.552,5.552,0,0,1-3.116.764h-6.885V31.61h6.474a3.3,3.3,0,0,0,1.48-.275q.626-.292.506-1.318c-.057-.537-.256-.867-.6-.993a3.811,3.811,0,0,0-1.216-.208l-3.048-.015a5.059,5.059,0,0,1-3.007-.764,3.187,3.187,0,0,1-1.088-2.817,3.345,3.345,0,0,1,1.19-2.918,5.52,5.52,0,0,1,3.126-.78l6.766-.017V23.7Z" transform="translate(-54.16 -21.503)" fill="#fff"/>
      <path id="Path_26" data-name="Path 26" d="M259.965,24.608a4.3,4.3,0,0,1,3.16,1.166,4.559,4.559,0,0,1,1.227,3.134,5.8,5.8,0,0,1-.174,1.779,4.043,4.043,0,0,1-.787,1.576,2.949,2.949,0,0,1-1.608,1.131,7.723,7.723,0,0,1-1.97.241h-2.056v3.254h-2.38V24.608Zm-2.209,1.953V31.7a1.617,1.617,0,0,0,.232.018h.232a8.183,8.183,0,0,0,2.67-.335c.687-.232,1.011-1.065.977-2.491q-.052-1.8-1.027-2.073a8.384,8.384,0,0,0-2.346-.256c-.126.012-.25.018-.368.018h-.369Z" transform="translate(-53.475 -21.506)" fill="#fff"/>
      <path id="Path_27" data-name="Path 27" d="M265.288,21.5h2.5v2.244h-2.5Zm0,3.272h2.5V33.8h-2.5Z" transform="translate(-52.941 -21.503)" fill="#fff"/>
      <path id="Path_28" data-name="Path 28" d="M273.62,24.609c1.289.012,2.038.309,2.243.891a6.988,6.988,0,0,1,.291,2.345v.566l-2.277-.016v-.378a2.863,2.863,0,0,0-.2-1.453c-.131-.138-.608-.208-1.429-.208h-.256v7.278h-2.382V24.609Z" transform="translate(-52.708 -21.405)" fill="#fff"/>
      <path id="Path_29" data-name="Path 29" d="M277.249,21.5h2.5v2.244h-2.5Zm0,3.272h2.5V33.8h-2.5Z" transform="translate(-52.297 -21.503)" fill="#fff"/>
      <path id="Path_30" data-name="Path 30" d="M282.4,24.776V21.505h2.38v3.271H287.3v1.8h-2.518v3.649q-.017,1.352.617,1.574a5.425,5.425,0,0,0,1.746.222h.155V33.8h-2.175a2.616,2.616,0,0,1-2.037-.751,2.942,2.942,0,0,1-.685-2.057V26.574h-1.68v-1.8Z" transform="translate(-52.109 -21.503)" fill="#fff"/>
      <path id="Path_31" data-name="Path 31" d="M237.964,32.426a1.611,1.611,0,0,1-1.3,1.307,3.554,3.554,0,0,1-2.364-.13c-.865-.334-1.694-.76-2.654-1.2-.357.211-.8.5-1.266.751a5.162,5.162,0,0,1-5.765-.266,2.506,2.506,0,0,1-.072-4.386c.715-.535,1.484-1,2.287-1.529-.252-.424-.5-.807-.717-1.212a2.121,2.121,0,0,1,1.228-3.28,4.01,4.01,0,0,1,4,.45c.664.466.7.814.258,1.46-.585.036-.748-.444-1.006-.821a1.967,1.967,0,0,0-2.272-.818,1.306,1.306,0,0,0-.9,1.948,4.253,4.253,0,0,0,.7,1.081c1.349,1.47,2.724,2.917,4.091,4.369a1.789,1.789,0,0,0,.293.2,2.994,2.994,0,0,0,1.342-2.182c.1-.456-.268-.716-.634-.911-.276-.149-.566-.271-.933-.447a11.678,11.678,0,0,1,4.448-.095,19.033,19.033,0,0,0-2.106,1.846,20.279,20.279,0,0,0-1.561,2.387,4.154,4.154,0,0,0,2.136,1.84c.964.414,1.792-.209,2.768-.367m-6.72-.772c-1.3-1.443-2.57-2.84-3.907-4.322-.582.466-1.16.857-1.649,1.333a2.036,2.036,0,0,0-.139,2.792,3.754,3.754,0,0,0,5.7.2" transform="translate(-52.641 -21.487)" fill="#fff"/>
    </g>
    <g id="Group_624" data-name="Group 624" transform="translate(300 10.83)">
      <g id="Group_620" data-name="Group 620" transform="translate(0 0)" clip-path="url(#clip-path)">
        <path id="Path_1977" data-name="Path 1977" d="M177.148,181a8.656,8.656,0,0,0,1.331-2.136c-.918.028-1.738.049-2.615.077-.061-.327-.128-.663-.2-1.065-.358.3-.672.57-1.016.864-.081-.2-.149-.364-.227-.562-.077.07-.142.1-.16.152-.237.605-.474,1.21-.7,1.818-.058.152.038.243.17.32A2.081,2.081,0,0,1,174.8,182.5a4.314,4.314,0,0,0,2.333.251c-.185-.235-.327-.411-.5-.627a4.152,4.152,0,0,0,1.463-.309c-.335-.294-.636-.553-.944-.816" transform="translate(-139.576 -143.064)" fill="#fff"/>
        <path id="Path_1978" data-name="Path 1978" d="M164.1,208.3a1.441,1.441,0,0,0-1.426,1.442,1.38,1.38,0,0,0,1.446,1.352,1.458,1.458,0,0,0,1.437-1.442A1.4,1.4,0,0,0,164.1,208.3" transform="translate(-130.837 -167.537)" fill="#fff"/>
        <path id="Path_1979" data-name="Path 1979" d="M163.791,195.668a1.461,1.461,0,0,0,1.485-1.4,1.383,1.383,0,0,0-1.415-1.4,1.465,1.465,0,0,0-1.484,1.4,1.406,1.406,0,0,0,1.414,1.4" transform="translate(-130.6 -155.128)" fill="#fff"/>
        <path id="Path_1980" data-name="Path 1980" d="M150.455,218.087a1.435,1.435,0,0,0-1.44,1.423,1.378,1.378,0,0,0,1.437,1.361,1.45,1.45,0,0,0,1.447-1.427,1.385,1.385,0,0,0-1.443-1.358" transform="translate(-119.853 -175.407)" fill="#fff"/>
        <path id="Path_1981" data-name="Path 1981" d="M149.986,201.742a1.439,1.439,0,0,0-1.447,1.418,1.371,1.371,0,0,0,1.431,1.363,1.44,1.44,0,0,0,1.453-1.417,1.386,1.386,0,0,0-1.437-1.364" transform="translate(-119.47 -162.261)" fill="#fff"/>
        <path id="Path_1982" data-name="Path 1982" d="M149.675,188.64a1.477,1.477,0,0,0,1.482-1.405,1.407,1.407,0,0,0-1.434-1.38,1.46,1.46,0,0,0-1.476,1.405,1.4,1.4,0,0,0,1.427,1.379" transform="translate(-119.235 -149.483)" fill="#fff"/>
        <path id="Path_1983" data-name="Path 1983" d="M137.276,227.158a1.436,1.436,0,0,0-1.437,1.429,1.373,1.373,0,0,0,1.439,1.356,1.447,1.447,0,0,0,1.443-1.426,1.392,1.392,0,0,0-1.446-1.358" transform="translate(-109.255 -182.703)" fill="#fff"/>
        <path id="Path_1984" data-name="Path 1984" d="M136.813,214.053a1.438,1.438,0,0,0,1.431-1.436,1.389,1.389,0,0,0-1.456-1.345,1.44,1.44,0,0,0-1.427,1.438,1.374,1.374,0,0,0,1.453,1.343" transform="translate(-108.87 -169.926)" fill="#fff"/>
        <path id="Path_1985" data-name="Path 1985" d="M136.041,198.626a1.491,1.491,0,0,0,.689-.178,1.554,1.554,0,0,0,.178-.114,1.469,1.469,0,0,0,.161-.136c-.023.022-.048.04-.072.06.024-.021.049-.039.072-.061a1.377,1.377,0,0,0,.431-.994,1.409,1.409,0,0,0-1.456-1.358,1.458,1.458,0,0,0-1.453,1.426,1.4,1.4,0,0,0,1.45,1.355" transform="translate(-108.251 -157.518)" fill="#fff"/>
        <path id="Path_1986" data-name="Path 1986" d="M24.612,47.007a3.425,3.425,0,0,1-2.107-1.08,1.024,1.024,0,0,1-.313-.759c.006-2.329.016-4.653-.017-6.974a1.626,1.626,0,0,1,.66-1.378,22.594,22.594,0,0,0,3.514-3.807,2.683,2.683,0,0,0,.413-.834,6.993,6.993,0,0,0,.284-2.058,18.953,18.953,0,0,0-.479-3.915,15.045,15.045,0,0,0-.97-3.093c-.211-.476-.407-.543-.9-.337a2.482,2.482,0,0,0-.285.142.683.683,0,0,0-.384.785c.051.259.109.522.186.775a20.166,20.166,0,0,1,.969,4.507,5.7,5.7,0,0,1-1.447,4.663c-.63.642-1.28,1.275-1.939,1.895a.888.888,0,0,1-.186.142l-.006,0a.371.371,0,0,1-.075.031h-.007a.335.335,0,0,1-.138,0h-.007a.723.723,0,0,1-.234-.111,1.488,1.488,0,0,1-.245-.2c-.733-.735-1.469-1.469-2.193-2.213a4.237,4.237,0,0,1-1.143-2.42,12.816,12.816,0,0,1-.066-2.794,9.1,9.1,0,0,1,1.519-4.462c.621-.914,1.258-1.821,1.863-2.747a2.9,2.9,0,0,0,.383-.889,4.056,4.056,0,0,0-.121-2.056,6.728,6.728,0,0,0-.72-1.594.4.4,0,0,0-.059-.13c-.109-.158-.217-.316-.324-.474l.018.01Q18.98,13.9,17.892,12.175a1.95,1.95,0,0,1-.314-1.087c.013-3.331.006-6.662.006-9.994,0-.164.006-.331,0-.491-.023-.467-.16-.6-.643-.6q-1.954,0-3.914,0c-.5,0-.582.065-.662.531A1.517,1.517,0,0,0,12.346.8c-.032,2.442-.067,4.885-.09,7.326-.008.654-.017,1.308-.015,1.963a.278.278,0,0,0-.009.055c0,.138,0,.276.012.413,0,.3.011.6.023.906l.011.005a3.416,3.416,0,0,1-.042.5s0,0,0,0a2.471,2.471,0,0,1-.482,1.029c-.845,1.145-1.641,2.318-2.457,3.485a3.272,3.272,0,0,0-.548,1.98c.013,1.273.006,2.547,0,3.819a1.587,1.587,0,0,1-.039.25c-.295-.268-.556-.537-.854-.766a1.267,1.267,0,0,1-.509-1.149c.023-2.83.013-5.659.01-8.484,0-.589-.188-.831-.755-.846-.95-.028-1.9-.037-2.855,0a.794.794,0,0,0-.838.86c.019.439-.045.886-.051,1.332q-.053,3.727-.1,7.459c0,.149-.006.294,0,.445a.621.621,0,0,1-.167.432c-.636.831-1.267,1.671-1.865,2.529a2.8,2.8,0,0,0-.551,1.572C.156,27.915.111,29.9.1,31.879Q.037,38.848,0,45.825a1.7,1.7,0,0,0,1.219,1.851c.14.489.149.5.662.5q1.911.008,3.821.005c.953,0,1.9-.005,2.854,0,.253,0,.413-.075.477-.319.023-.1.058-.194.09-.293a1.481,1.481,0,0,0,.918-.754,2.513,2.513,0,0,0,.237-1.115c-.022-3.451-.058-6.9-.058-10.348,0-3.715.035-7.429.058-11.144.01-1.867.039-3.729.016-5.6a2.628,2.628,0,0,1,.5-1.621c.829-1.173,1.636-2.359,2.474-3.529a2.624,2.624,0,0,0,.439-.93l-.009,0a.34.34,0,0,0,.046-.163v-.157l.013.007c.013-.114.026-.228.035-.34s.013-.228.013-.343q.009-4.64,0-9.283c0-.17.013-.343.016-.516H16.1c.009.1.021.194.024.281.02,1.658.048,3.316.061,4.971.01,1.423.019,2.843-.01,4.266a2.429,2.429,0,0,0,.394,1.426q.087.134.163.269c.234.393.464.788.7,1.181a.4.4,0,0,0,.054.154c.211.349.429.693.65,1.034q.631,1.071,1.249,2.147a2.363,2.363,0,0,1-.023,2.538c-.33.532-.695,1.044-1.062,1.553a13.031,13.031,0,0,0-1.7,2.732,13.609,13.609,0,0,0-.739,6.946,5.2,5.2,0,0,0,1.3,2.843c.41.46.828.915,1.258,1.359.483.494.966.994,1.476,1.466a1.692,1.692,0,0,1,.569,1.384c-.054,2.309-.077,4.619-.1,6.928a1.071,1.071,0,0,1-.262.734,2.661,2.661,0,0,1-1.031.8c-.265.111-.551.179-.813.3-.141.064-.333.185-.349.3a1.734,1.734,0,0,0,.045.954,1.433,1.433,0,0,0,.2.031q3.038-.014,6.077-.037c.9-.006.83.077.825-.834,0-.407-.006-.413-.432-.46M21.591,35.688a.289.289,0,0,1-.06.024.555.555,0,0,0,.06-.024m-.193.031a.282.282,0,0,0,.108,0,.271.271,0,0,1-.108,0" transform="translate(0 0.001)" fill="#fff"/>
        <path id="Path_1987" data-name="Path 1987" d="M70.3,61.059c.013-.114.026-.229.032-.34-.01.111-.022.225-.035.34Z" transform="translate(-56.54 -48.836)" fill="#fff"/>
      </g>
    </g>
  </g>
</svg>
