<svg xmlns="http://www.w3.org/2000/svg" xmlns:xlink="http://www.w3.org/1999/xlink" width="65" height="72.35" viewBox="0 0 65 72.35">
  <defs>
    <clipPath id="clip-path">
      <rect id="Rectangle_132" data-name="Rectangle 132" width="65" height="72.35" fill="none"/>
    </clipPath>
  </defs>
  <g id="Group_213" data-name="Group 213" transform="translate(0 0)">
    <g id="Group_212" data-name="Group 212" transform="translate(0 0)" clip-path="url(#clip-path)">
      <path id="Path_1930" data-name="Path 1930" d="M43.107,71.991A3.841,3.841,0,0,1,40.2,68.645a3.511,3.511,0,0,1,2.658-4c1.881-.422,3.782-.758,5.674-1.132.251-.05.5-.11.808-.178-1.038-5.317-2.068-10.594-3.1-15.868-5.095-.562-7.952-3.985-10.293-7.994a33.038,33.038,0,0,1-3.87-11.792,71.959,71.959,0,0,1-.568-17.321c.211-2.434.263-2.5,2.681-2.966q5.925-1.14,11.843-2.312c1.192-.234,1.629-.049,2.189,1a65.936,65.936,0,0,1,7.237,21.119,25.277,25.277,0,0,1-1.472,14.277,10.061,10.061,0,0,1-4.567,5.2.7.7,0,0,0-.32.567q1.465,7.657,2.981,15.3a1.455,1.455,0,0,0,.119.253c1.8-.354,3.621-.7,5.433-1.07a4.4,4.4,0,0,1,3.226.23,4.079,4.079,0,0,1,1.86,3.922,3.459,3.459,0,0,1-2.854,3.017c-4.773.959-9.555,1.879-14.331,2.819-.389.077-.772.187-1.158.282Zm-8.292-45.16H52.568A67.664,67.664,0,0,0,46.028,7.97L34.386,10.244a68.722,68.722,0,0,0,.429,16.588m.536,2.926a28.615,28.615,0,0,0,3.467,8.969,14.255,14.255,0,0,0,4.434,4.855c2.585,1.625,5.042,1.221,6.909-1.177a12.892,12.892,0,0,0,2.324-5.612,24.072,24.072,0,0,0,.379-7.034Zm8.491,39.389c.091-.02.227-.053.366-.079q4.225-.818,8.45-1.636,3.185-.619,6.369-1.246c.811-.16.986-.435.818-1.151-.161-.686-.591-.739-1.177-.623-3.552.7-7.108,1.388-10.662,2.081q-2.146.418-4.292.841c-.486.1-.77.359-.686.883.072.449.161.908.815.929" transform="translate(2.246 0.359)" fill="#b0a07b"/>
      <path id="Path_1931" data-name="Path 1931" d="M18.355,71.991c-1.839-.377-3.678-.765-5.519-1.132-3.322-.66-6.648-1.3-9.968-1.964A3.252,3.252,0,0,1,.085,66.162a3.865,3.865,0,0,1,1.307-3.88A3.5,3.5,0,0,1,4.454,61.6c2.007.4,4.015.785,6.141,1.2l2.947-15.846a23.723,23.723,0,0,1-2.028-1.393,12.473,12.473,0,0,1-3.761-6.338A30.53,30.53,0,0,1,7.731,23.8a70.246,70.246,0,0,1,6.563-17.66c.6-1.134,1-1.3,2.291-1.05Q22.921,6.33,29.259,7.554c1.232.238,1.55.618,1.689,1.874a69.679,69.679,0,0,1-.162,16.2C30.141,30.881,28.873,35.944,26,40.478a15.02,15.02,0,0,1-6.378,6.113,22.664,22.664,0,0,1-2.834.794c-.2.059-.477.245-.508.414-.975,5.15-1.925,10.306-2.893,15.541l4.431.875c.645.129,1.3.237,1.936.391a3.469,3.469,0,0,1,2.822,3.265,3.806,3.806,0,0,1-2.5,3.937c-.151.054-.3.121-.445.182ZM16.512,7.971c-3.626,7.313-6.391,14.843-6.942,23.053a2.215,2.215,0,0,0,.327.069c5.513,0,11.024,0,16.536.017.456,0,.558-.219.614-.578.4-2.555.9-5.1,1.168-7.667a65.342,65.342,0,0,0,.042-11.993.705.705,0,0,0-.687-.764c-3.651-.695-7.3-1.407-11.059-2.136M9.766,33.983c-.056,2.665,1.1,6.726,2.861,8.709a5.081,5.081,0,0,0,2.817,1.764,5.586,5.586,0,0,0,4.684-1.481,19.151,19.151,0,0,0,5.448-7.866c.153-.357.283-.724.439-1.127ZM3.708,64.354c-.74,0-.8.515-.86.974-.078.585.334.76.815.853q7.444,1.444,14.889,2.891c.748.146.985-.018,1.139-.739.148-.692-.224-.911-.822-1.027-3.81-.734-7.616-1.487-11.423-2.231-1.269-.249-2.539-.491-3.738-.722" transform="translate(0 0.359)" fill="#b0a07b"/>
      <path id="Path_1932" data-name="Path 1932" d="M28.72,3.7c0-.706-.012-1.413,0-2.118A1.448,1.448,0,0,1,30.091,0,1.43,1.43,0,0,1,31.54,1.5q.045,2.222,0,4.447a1.412,1.412,0,0,1-1.406,1.47,1.43,1.43,0,0,1-1.408-1.534c-.018-.729,0-1.459,0-2.189" transform="translate(2.065 0)" fill="#b0a07b"/>
      <path id="Path_1933" data-name="Path 1933" d="M25.713,6.012a3.651,3.651,0,0,1-.93-.747c-.61-.862-1.141-1.784-1.666-2.7A1.412,1.412,0,1,1,25.5,1.06c.591.907,1.162,1.829,1.68,2.777a1.455,1.455,0,0,1-1.469,2.175" transform="translate(1.644 0.023)" fill="#b0a07b"/>
      <path id="Path_1934" data-name="Path 1934" d="M37.764,1.965a12.349,12.349,0,0,1-2.48,3.853,1.128,1.128,0,0,1-1.5-.117,1.183,1.183,0,0,1-.464-1.5c.632-1.177,1.324-2.328,2.07-3.435A1.2,1.2,0,0,1,36.929.445c.545.226.831.671.835,1.52" transform="translate(2.387 0.022)" fill="#b0a07b"/>
      <path id="Path_1935" data-name="Path 1935" d="M45.428,14.725a1.315,1.315,0,0,1,1.359.925c.6,1.8,1.188,3.614,1.721,5.439a1.377,1.377,0,0,1-.973,1.716,1.362,1.362,0,0,1-1.715-.963c-.582-1.762-1.152-3.528-1.687-5.3a1.355,1.355,0,0,1,1.295-1.814" transform="translate(3.168 1.059)" fill="#b0a07b"/>
      <path id="Path_1936" data-name="Path 1936" d="M43.485,9.838a1.406,1.406,0,0,1,1.389,1.4,1.41,1.41,0,1,1-2.82-.041,1.413,1.413,0,0,1,1.431-1.359" transform="translate(3.024 0.708)" fill="#b0a07b"/>
      <path id="Path_1937" data-name="Path 1937" d="M25.147,17.543c-.1,1.594-.192,3.19-.315,4.783a1.408,1.408,0,1,1-2.813-.1q.09-4.333.235-8.664a1.394,1.394,0,0,1,1.369-1.416,1.419,1.419,0,0,1,1.428,1.45c.055,1.314.014,2.633.014,3.948l.083,0" transform="translate(1.583 0.873)" fill="#b0a07b"/>
      <path id="Path_1938" data-name="Path 1938" d="M22.693,28.4a1.411,1.411,0,1,1,.005-2.821,1.411,1.411,0,0,1-.005,2.821" transform="translate(1.529 1.839)" fill="#b0a07b"/>
    </g>
  </g>
</svg>
