<svg xmlns="http://www.w3.org/2000/svg" xmlns:xlink="http://www.w3.org/1999/xlink" width="72" height="72.015" viewBox="0 0 72 72.015">
  <defs>
    <clipPath id="clip-path">
      <rect id="Rectangle_145" data-name="Rectangle 145" width="72" height="72.015" fill="none"/>
    </clipPath>
  </defs>
  <g id="Group_218" data-name="Group 218" clip-path="url(#clip-path)">
    <path id="Path_1943" data-name="Path 1943" d="M39.235,72.015H17.016a2,2,0,0,1-1-1.992c.031-3.61.013-7.22.013-10.829v-.9A9.891,9.891,0,0,1,10.881,60.9V69.2c.374,0,.7,0,1.024,0,.352,0,.7-.015,1.055,0a1.419,1.419,0,0,1,1.465,1.529,1.6,1.6,0,0,1-1.065,1.279H5.485c-.908-.535-1.18-1.028-.984-1.787.177-.69.754-1.022,1.785-1.025.556,0,1.113,0,1.7,0V60.938c-.133-.041-.243-.081-.356-.109A9.411,9.411,0,0,1,0,51.16q0-9.7,0-19.4c0-1.465.467-1.927,1.948-1.927H16c.013-.2.025-.309.027-.422a13.185,13.185,0,0,1,6.7-11.676.9.9,0,0,0,.475-.9q-.019-7.487-.007-14.974C23.195.476,23.674,0,25.064,0q3.056,0,6.114,0c1.42,0,1.877.467,1.879,1.911,0,4.968.007,9.937-.012,14.9a.924.924,0,0,0,.541.933,12.119,12.119,0,0,1,5.129,5.429,3.222,3.222,0,0,0,2.307,2.152A10.171,10.171,0,0,1,43.693,26.9l3.377-2.075a6.492,6.492,0,0,0-1.653-3.87.992.992,0,0,0-1.136-.355,41.418,41.418,0,0,1-4.167.517A1.343,1.343,0,0,1,38.6,19.8,1.42,1.42,0,0,1,40,18.339c.254-.032.514-.029.771-.036a12.643,12.643,0,0,0,6.766-2.241,2.734,2.734,0,0,0,1.549-2.451,2.982,2.982,0,0,1,.157-.753c.394-1.653.634-1.829,2.355-1.742a.909.909,0,0,0,.2-.032C52.639,8,53.6,6.653,55.975,5.227a1.454,1.454,0,0,1,2.241.438c.532.786.977,1.631,1.473,2.473.292-.162.587-.349.9-.5,2.645-1.235,5.337-.968,8.015-.162a1.507,1.507,0,0,1,.837.933,19.365,19.365,0,0,1,.577,3.167,8.469,8.469,0,0,1-1.331,5.65c1.236.654,2.575,1.067,3.312,2.321v.7a8.244,8.244,0,0,1-6.27,4.813c.093.766.317,1.529-.337,1.985a9.993,9.993,0,0,1-1.877.813,6.116,6.116,0,0,1,.319,5.762,6.2,6.2,0,0,1-4.562,3.6c.918,4.342-.7,7.134-4.861,8.431.787,2.9.17,5.364-2.257,7.158a5.681,5.681,0,0,1-6.238.573c-3.211-1.635-4.125-4.373-3.279-7.727l-2.417-.954v.787q0,12.265.013,24.532a2.008,2.008,0,0,1-1,1.991M18.864,57.88h18.5V37.467h-18.5Zm7.142-43.128c0,1.106-.015,2.178.005,3.249a1.651,1.651,0,0,1-1,1.692c-.276.126-.545.272-.809.422a9.9,9.9,0,0,0-4.929,6.363,20.464,20.464,0,0,0-.411,3.891c-.066,1.393-.015,2.792-.015,4.185H33.669A6.433,6.433,0,0,1,36.6,25.218a10.054,10.054,0,0,0-5.018-5.349,2.039,2.039,0,0,1-1.345-2.194c.062-.971.013-1.949.013-2.923ZM2.876,43.989a1.622,1.622,0,0,0-.059.294c0,2.461-.065,4.924.017,7.383a6.508,6.508,0,0,0,6.5,6.507,6.536,6.536,0,0,0,6.693-6.522c.052-2.389.014-4.781.012-7.172a4.477,4.477,0,0,0-.054-.491ZM68.615,20.339a5.349,5.349,0,0,0-3.352-.644A1.394,1.394,0,0,1,63.6,18.65a1.421,1.421,0,0,1,.99-1.644,4.046,4.046,0,0,0,2.506-3.155,7.783,7.783,0,0,0,.117-2.161c-.223-2.189.03-1.747-1.855-2.025-.116-.017-.231-.038-.348-.049a4.81,4.81,0,0,0-5.095,2.575c-.423.932-1.014,1.276-1.8,1.045-.723-.214-1.034-.833-.922-1.8a5.117,5.117,0,0,0-.66-3.187A4.426,4.426,0,0,0,54.761,12.9a1.4,1.4,0,0,1-2.117,1.523c-.229-.132-.482-.223-.894-.41,0,.987-.062,1.825.014,2.651a2.8,2.8,0,0,0,2.387,2.59,8.818,8.818,0,0,0,1.672.163c1.027.042,1.5.459,1.6,1.466.045.465.03.94.109,1.4a3.036,3.036,0,0,0,2.1,2.731,6.7,6.7,0,0,0,3.174,0,3.156,3.156,0,0,0-.25-.626,1.4,1.4,0,0,1-.075-1.756,1.488,1.488,0,0,1,1.7-.492,4.3,4.3,0,0,0,4.44-1.8M37.378,67.092h-.689c-2.177,0-4.355.011-6.533-.005a1.422,1.422,0,0,1-1.572-1.618,1.45,1.45,0,0,1,1.589-1.185c2.155-.011,4.309,0,6.463,0h.715v-3.5H18.88v8.381h18.5Zm-34.531-26H15.975V32.659H2.847ZM30.193,2.867H26.045v9h4.147ZM58.205,34.48a3.395,3.395,0,1,0-3.428-3.352,3.412,3.412,0,0,0,3.428,3.352M47.116,39.4a3.4,3.4,0,1,0-3.411,3.455A3.429,3.429,0,0,0,47.116,39.4m-8.242-4.92a3.4,3.4,0,1,0-3.387-3.4,3.416,3.416,0,0,0,3.387,3.4M51.932,31.06a3.4,3.4,0,1,0-3.351,3.421,3.373,3.373,0,0,0,3.351-3.421m1.459,4.965a3.417,3.417,0,1,0,3.386,3.431,3.465,3.465,0,0,0-3.386-3.431M51.932,47.8a3.4,3.4,0,0,0-6.8-.049,3.4,3.4,0,1,0,6.8.049M52.871,22l-.019-.2a5.805,5.805,0,0,1-3.625-3.5l-1.36.87,2.1,4.3L52.871,22M55,23.906l-3.137,1.867c.519.451,1.017.885,1.455,1.267l2.312-1.751L55,23.906" transform="translate(0 -0.001)" fill="#b0a07b"/>
    <path id="Path_1944" data-name="Path 1944" d="M26.94,50.279a5.265,5.265,0,1,1,5.033-5.488,5.27,5.27,0,0,1-5.033,5.488m-.273-7.742a2.476,2.476,0,1,0,2.5,2.433,2.509,2.509,0,0,0-2.5-2.433" transform="translate(1.429 2.652)" fill="#b0a07b"/>
    <path id="Path_1945" data-name="Path 1945" d="M24.683,61.642a1.394,1.394,0,1,1-1.417-1.372,1.449,1.449,0,0,1,1.417,1.372" transform="translate(1.461 4.021)" fill="#b0a07b"/>
  </g>
</svg>
