<svg id="Component_154_3" data-name="Component 154 – 3" xmlns="http://www.w3.org/2000/svg" xmlns:xlink="http://www.w3.org/1999/xlink" width="18.59" height="13.013" viewBox="0 0 18.59 13.013">
  <defs>
    <clipPath id="clip-path">
      <rect id="Rectangle_74" data-name="Rectangle 74" width="18.59" height="13.013" fill="none"/>
    </clipPath>
  </defs>
  <g id="Group_128" data-name="Group 128" clip-path="url(#clip-path)">
    <path id="Path_1924" data-name="Path 1924" d="M14.51,0H4.079A4.08,4.08,0,0,0,0,4.079V8.934a4.08,4.08,0,0,0,4.079,4.079H14.51a4.08,4.08,0,0,0,4.08-4.079V4.079A4.08,4.08,0,0,0,14.51,0M11.966,6.779a.652.652,0,0,1-.318.318L7.868,8.843a.651.651,0,0,1-.923-.591V4.761a.651.651,0,0,1,.923-.59l3.779,1.745a.651.651,0,0,1,.318.863" transform="translate(0 0)" fill="#b0a07b"/>
  </g>
</svg>
